<?xml version="1.0" encoding="utf-8"?>
<!-- Generator: Adobe Illustrator 25.4.1, SVG Export Plug-In . SVG Version: 6.00 Build 0)  -->
<svg version="1.1" id="Layer_1" xmlns="http://www.w3.org/2000/svg" xmlns:xlink="http://www.w3.org/1999/xlink" x="0px" y="0px"
	 viewBox="0 0 15 24" style="enable-background:new 0 0 15 24;" xml:space="preserve">
<style type="text/css">
	.st0{fill-rule:evenodd;clip-rule:evenodd;fill:#444444;}
</style>
<g id="Styles">
	<g id="Artboard" transform="translate(-183.000000, -205.000000)">
		<path id="Chevron-Thick" class="st0" d="M186.1,205.3l11.4,11.6L186,228.7c-0.2,0.2-0.5,0.3-0.8,0.3c-0.3,0-0.6-0.1-0.8-0.3
			l-1.2-1.2h0c-0.2-0.2-0.3-0.5-0.3-0.8c0-0.3,0.1-0.6,0.3-0.8l8.8-8.9l-8.7-8.9c-0.4-0.4-0.4-1.1,0-1.6l1.2-1.2v0
			c0.2-0.2,0.5-0.3,0.8-0.3C185.6,205,185.9,205.1,186.1,205.3L186.1,205.3z"/>
	</g>
</g>
</svg>
